<svg width="30" height="30" viewBox="0 0 30 30" fill="none" xmlns="http://www.w3.org/2000/svg">
<g id="mingcute:emoji-line" clip-path="url(#clip0_706_170)">
<g id="Group">
<path id="Vector" d="M15 2.5C21.9037 2.5 27.5 8.09625 27.5 15C27.5 21.9037 21.9037 27.5 15 27.5C8.09625 27.5 2.5 21.9037 2.5 15C2.5 8.09625 8.09625 2.5 15 2.5ZM15 5C12.3478 5 9.8043 6.05357 7.92893 7.92893C6.05357 9.8043 5 12.3478 5 15C5 17.6522 6.05357 20.1957 7.92893 22.0711C9.8043 23.9464 12.3478 25 15 25C17.6522 25 20.1957 23.9464 22.0711 22.0711C23.9464 20.1957 25 17.6522 25 15C25 12.3478 23.9464 9.8043 22.0711 7.92893C20.1957 6.05357 17.6522 5 15 5ZM18.5 17.3213C18.6166 17.2036 18.7555 17.1103 18.9085 17.0468C19.0615 16.9833 19.2255 16.9508 19.3912 16.9513C19.5569 16.9517 19.7208 16.9851 19.8734 17.0495C20.026 17.1138 20.1644 17.2079 20.2803 17.3262C20.3963 17.4445 20.4876 17.5846 20.5489 17.7385C20.6103 17.8924 20.6404 18.0569 20.6376 18.2226C20.6347 18.3882 20.599 18.5516 20.5325 18.7033C20.466 18.855 20.3699 18.992 20.25 19.1063C18.8492 20.4822 16.9635 21.2522 15 21.25C13.0365 21.2522 11.1508 20.4822 9.75 19.1063C9.51879 18.873 9.38866 18.5581 9.38775 18.2297C9.38685 17.9013 9.51523 17.5857 9.74516 17.3512C9.97508 17.1166 10.2881 16.982 10.6164 16.9764C10.9448 16.9708 11.2622 17.0947 11.5 17.3213C12.4335 18.239 13.6909 18.7523 15 18.75C16.3625 18.75 17.5962 18.2063 18.5 17.3213ZM10.625 10C11.1223 10 11.5992 10.1975 11.9508 10.5492C12.3025 10.9008 12.5 11.3777 12.5 11.875C12.5 12.3723 12.3025 12.8492 11.9508 13.2008C11.5992 13.5525 11.1223 13.75 10.625 13.75C10.1277 13.75 9.6508 13.5525 9.29917 13.2008C8.94754 12.8492 8.75 12.3723 8.75 11.875C8.75 11.3777 8.94754 10.9008 9.29917 10.5492C9.6508 10.1975 10.1277 10 10.625 10ZM19.375 10C19.8723 10 20.3492 10.1975 20.7008 10.5492C21.0525 10.9008 21.25 11.3777 21.25 11.875C21.25 12.3723 21.0525 12.8492 20.7008 13.2008C20.3492 13.5525 19.8723 13.75 19.375 13.75C18.8777 13.75 18.4008 13.5525 18.0492 13.2008C17.6975 12.8492 17.5 12.3723 17.5 11.875C17.5 11.3777 17.6975 10.9008 18.0492 10.5492C18.4008 10.1975 18.8777 10 19.375 10Z" fill="#333333"/>
</g>
</g>
<defs>
<clipPath id="clip0_706_170">
<rect width="30" height="30" fill="white"/>
</clipPath>
</defs>
</svg>
