<svg width="24" height="25" viewBox="0 0 24 25" fill="none" xmlns="http://www.w3.org/2000/svg">
<g id="Trash    ">
<path id="Vector" d="M10 18.5C10.2652 18.5 10.5196 18.3946 10.7071 18.2071C10.8946 18.0196 11 17.7652 11 17.5V11.5C11 11.2348 10.8946 10.9804 10.7071 10.7929C10.5196 10.6054 10.2652 10.5 10 10.5C9.73478 10.5 9.48043 10.6054 9.29289 10.7929C9.10536 10.9804 9 11.2348 9 11.5V17.5C9 17.7652 9.10536 18.0196 9.29289 18.2071C9.48043 18.3946 9.73478 18.5 10 18.5ZM20 6.5H16V5.5C16 4.70435 15.6839 3.94129 15.1213 3.37868C14.5587 2.81607 13.7956 2.5 13 2.5H11C10.2044 2.5 9.44129 2.81607 8.87868 3.37868C8.31607 3.94129 8 4.70435 8 5.5V6.5H4C3.73478 6.5 3.48043 6.60536 3.29289 6.79289C3.10536 6.98043 3 7.23478 3 7.5C3 7.76522 3.10536 8.01957 3.29289 8.20711C3.48043 8.39464 3.73478 8.5 4 8.5H5V19.5C5 20.2956 5.31607 21.0587 5.87868 21.6213C6.44129 22.1839 7.20435 22.5 8 22.5H16C16.7956 22.5 17.5587 22.1839 18.1213 21.6213C18.6839 21.0587 19 20.2956 19 19.5V8.5H20C20.2652 8.5 20.5196 8.39464 20.7071 8.20711C20.8946 8.01957 21 7.76522 21 7.5C21 7.23478 20.8946 6.98043 20.7071 6.79289C20.5196 6.60536 20.2652 6.5 20 6.5ZM10 5.5C10 5.23478 10.1054 4.98043 10.2929 4.79289C10.4804 4.60536 10.7348 4.5 11 4.5H13C13.2652 4.5 13.5196 4.60536 13.7071 4.79289C13.8946 4.98043 14 5.23478 14 5.5V6.5H10V5.5ZM17 19.5C17 19.7652 16.8946 20.0196 16.7071 20.2071C16.5196 20.3946 16.2652 20.5 16 20.5H8C7.73478 20.5 7.48043 20.3946 7.29289 20.2071C7.10536 20.0196 7 19.7652 7 19.5V8.5H17V19.5ZM14 18.5C14.2652 18.5 14.5196 18.3946 14.7071 18.2071C14.8946 18.0196 15 17.7652 15 17.5V11.5C15 11.2348 14.8946 10.9804 14.7071 10.7929C14.5196 10.6054 14.2652 10.5 14 10.5C13.7348 10.5 13.4804 10.6054 13.2929 10.7929C13.1054 10.9804 13 11.2348 13 11.5V17.5C13 17.7652 13.1054 18.0196 13.2929 18.2071C13.4804 18.3946 13.7348 18.5 14 18.5Z" fill="#AEA9B4"/>
</g>
</svg>
